<svg xmlns="http://www.w3.org/2000/svg" xmlns:xlink="http://www.w3.org/1999/xlink" version="1.1" x="0px" y="0px" width="100px" height="100px" viewBox="0 0 100 100" enable-background="new 0 0 100 100" xml:space="preserve">
<g id="Captions" display="none">
</g>
<g id="Your_Icon">
	<path d="M40.639,73.679c-6.373-6.379-9.324-14.869-8.893-23.215h15.467L23.606,26.857L0,50.464h14.714   c-0.04,9.1,3.371,18.217,10.313,25.162C35.904,86.506,52.097,88.77,65.234,82.5C56.451,83.343,47.368,80.406,40.639,73.679z"/>
	<path d="M85.286,50.486c0.04-9.1-3.371-18.217-10.313-25.162c-10.877-10.88-27.075-13.144-40.207-6.871   c8.783-0.845,17.866,2.091,24.59,8.818c6.379,6.379,9.33,14.869,8.898,23.215H52.781l23.606,23.609L100,50.486H85.286z"/>
</g>
</svg>